<?xml version="1.0" encoding="UTF-8"?>
<svg width="752pt" height="752pt" version="1.1" viewBox="0 0 752 752" xmlns="http://www.w3.org/2000/svg">
 <g>
  <path d="m360.93 167.2h13.633v25.113h157.14v-25.113h13.633c4.3047 0 7.1758-3.5859 7.1758-7.1758 0-4.3047-2.8711-7.1758-7.1758-7.1758h-184.41c-4.3047 0-7.1758 2.8711-7.1758 7.1758 0 3.5898 3.5859 7.1758 7.1758 7.1758z"/>
  <path d="m598.44 584.81h-11.48v-38.746h-28.703c-3.5859 0-7.1758-3.5859-7.1758-7.1758 0-4.3047 3.5859-7.1758 7.1758-7.1758h28.703v-40.184h-28.703c-3.5859 0-7.1758-2.8711-7.1758-7.1758 0-3.5859 3.5859-7.1758 7.1758-7.1758h28.703v-40.184h-28.703c-3.5859 0-7.1758-3.5859-7.1758-7.1758 0-4.3047 3.5859-7.1758 7.1758-7.1758h28.703v-39.465h-28.703c-3.5859 0-7.1758-3.5859-7.1758-7.1758 0-4.3047 3.5859-7.1758 7.1758-7.1758h28.703v-40.184h-28.703c-3.5859 0-7.1758-3.5859-7.1758-7.1758 0-4.3047 3.5859-7.1758 7.1758-7.1758h28.703v-40.184h-28.703c-3.5859 0-7.1758-3.5859-7.1758-7.1758 0-4.3047 3.5859-7.1758 7.1758-7.1758h28.703v-27.984c0-13.633-10.762-25.113-25.113-25.113l-371.69 0.003906c-13.633 0-25.113 10.762-25.113 25.113v353.75h-11.48c-3.5859 0-7.1758 2.8711-7.1758 7.1758 0 3.5859 3.5859 7.1758 7.1758 7.1758h444.88c3.5859 0 7.1758-3.5859 7.1758-7.1758 0-4.3047-3.5898-7.8906-7.1758-7.8906zm-272.67 0h-76.059v-52.383h76.059zm0-66.734h-76.059v-67.449h76.059zm0-81.801h-76.059v-67.449h76.059zm0-81.082h-76.059v-67.449h76.059zm0-81.801h-76.059v-52.383l76.059 0.003907zm149.97 310.7h-71.754l-0.003906-103.33c0-4.3047 3.5859-7.8945 7.8945-7.8945h56.688c4.3047 0 7.8945 3.5859 7.8945 7.8945l-0.003907 103.33z"/>
 </g>
</svg>
